<svg xmlns="http://www.w3.org/2000/svg" viewBox="0 0 600 600"><defs><style>.cls-1{fill:#bbc3c8;}.cls-1,.cls-2{fill-rule:evenodd;}.cls-2{fill:#0668b3;}</style></defs><title>gg_logos</title><g id="air_lite" data-name="air lite"><path class="cls-1" d="M436.43,306.11c21.83,15.62,34.78,35.1,34.78,56.22,0,43.82-55.74,80.56-130.79,90.43q-1.94-3.43-3.73-7c64-9.09,111-39.76,111-76.26,0-15.51-8.49-30-23.14-42.14Q430.75,316.83,436.43,306.11ZM128.78,362.33c0-21.12,13-40.6,34.78-56.22q5.68,10.73,11.87,21.29C160.79,339.57,152.3,354,152.3,369.54c0,36.5,47,67.18,110.67,75.9a37.23,37.23,0,0,1-3.4,7.32C184.52,442.88,128.78,406.14,128.78,362.33Z"/><path class="cls-2" d="M359.55,391.56C437.38,289.9,468.3,215.12,485,88.17L344.66,281.92s-20,23.46-25.48,41.74c-3.66,12.31-3.79,32.71-3.79,32.71s-2.3,23.28-5.78,37.77c-1.27,5.3-2.61,10.36-4,15.23A247.25,247.25,0,0,0,317,442.8C330.71,428,344.19,411.62,359.55,391.56Zm40.25-85.28c-23.86,40.67-40.49,62.34-73.6,95.91,28.32-35.88,43.22-57.09,67.38-95.91,16.94-27.23,25.92-43,40.68-71.47C423.13,263.69,415.46,279.59,399.8,306.28Zm-6.34-18.09c-23.67,37.9-39,58.32-68.77,91.64,25.16-35,38.78-55.21,61.84-91.64,22.82-36,35.12-56.78,55.81-94.09C426.24,232.19,415.37,253.12,393.47,288.2ZM379.37,270c27.55-44.09,43.08-69,70.57-113.11C428,202.36,414.06,227.4,386.89,270c-22.76,35.67-36.65,55.22-62.85,88.45C345.64,323.94,357.81,304.48,379.37,270Z"/><path class="cls-2" d="M290.38,394.14c-3.48-14.49-5.77-37.77-5.77-37.77s-.13-20.4-3.79-32.71c-5.43-18.28-25.48-41.74-25.48-41.74L115,88.17c16.68,126.94,47.58,201.72,125.41,303.39,17.86,23.33,33.19,41.68,49.31,58.36-11.72,22.44-27.67,41.29-51.11,61.91,24.71-18.71,43.86-34.62,61.36-51.63,17.5,17,36.65,32.93,61.36,51.63C321.11,476.43,302.9,446.25,290.38,394.14Zm-90.52-87.86c-15.66-26.69-23.32-42.59-34.46-71.46,14.77,28.47,23.74,44.24,40.69,71.46,24.15,38.81,39.05,60,67.37,95.91C240.36,368.62,223.72,346.95,199.86,306.28Zm6.34-18.08c-21.9-35.07-32.78-56-48.89-94.09,20.69,37.31,33,58,55.81,94.09,23.06,36.43,36.69,56.62,61.85,91.64C245.2,346.52,229.87,326.1,206.2,288.2ZM212.78,270c-27.17-42.57-41.13-67.61-63.06-113.11,27.5,44.13,43,69,70.57,113.11,21.57,34.51,33.74,54,55.34,88.45C249.43,325.19,235.54,305.64,212.78,270Z"/><path class="cls-1" d="M292.08,304.43c0-23,2.1-34.79,7.92-73.84,5.82,40.11,7.92,50.82,7.92,73.84s-6.6,28.5-7.92,36.95C299.93,335.35,292.08,327.45,292.08,304.43Z"/></g></svg>